<mxfile host="app.diagrams.net" modified="2022-05-01T06:37:43.064Z" agent="5.0 (Macintosh; Intel Mac OS X 10_15_7) AppleWebKit/605.1.15 (KHTML, like Gecko) Version/15.4 Safari/605.1.15" etag="9upFOD5huEIpkiclGUb9" version="17.5.0" type="github">
  <diagram id="C5RBs43oDa-KdzZeNtuy" name="Page-1">
    <mxGraphModel dx="818" dy="965" grid="1" gridSize="10" guides="1" tooltips="1" connect="1" arrows="1" fold="1" page="1" pageScale="1" pageWidth="827" pageHeight="1169" math="0" shadow="0">
      <root>
        <mxCell id="WIyWlLk6GJQsqaUBKTNV-0" />
        <mxCell id="WIyWlLk6GJQsqaUBKTNV-1" parent="WIyWlLk6GJQsqaUBKTNV-0" />
        <mxCell id="3HVXW9suQ6SYdaEqqMiQ-4" style="edgeStyle=orthogonalEdgeStyle;rounded=0;orthogonalLoop=1;jettySize=auto;html=1;" edge="1" parent="WIyWlLk6GJQsqaUBKTNV-1" source="3HVXW9suQ6SYdaEqqMiQ-0" target="3HVXW9suQ6SYdaEqqMiQ-1">
          <mxGeometry relative="1" as="geometry" />
        </mxCell>
        <mxCell id="3HVXW9suQ6SYdaEqqMiQ-5" style="edgeStyle=orthogonalEdgeStyle;rounded=0;orthogonalLoop=1;jettySize=auto;html=1;" edge="1" parent="WIyWlLk6GJQsqaUBKTNV-1" source="3HVXW9suQ6SYdaEqqMiQ-0" target="3HVXW9suQ6SYdaEqqMiQ-2">
          <mxGeometry relative="1" as="geometry" />
        </mxCell>
        <mxCell id="3HVXW9suQ6SYdaEqqMiQ-0" value="" style="strokeWidth=2;html=1;shape=mxgraph.flowchart.start_1;whiteSpace=wrap;" vertex="1" parent="WIyWlLk6GJQsqaUBKTNV-1">
          <mxGeometry x="330" y="40" width="100" height="60" as="geometry" />
        </mxCell>
        <mxCell id="3HVXW9suQ6SYdaEqqMiQ-15" style="edgeStyle=orthogonalEdgeStyle;rounded=0;orthogonalLoop=1;jettySize=auto;html=1;entryX=0.6;entryY=-0.03;entryDx=0;entryDy=0;entryPerimeter=0;" edge="1" parent="WIyWlLk6GJQsqaUBKTNV-1" source="3HVXW9suQ6SYdaEqqMiQ-1" target="3HVXW9suQ6SYdaEqqMiQ-13">
          <mxGeometry relative="1" as="geometry" />
        </mxCell>
        <mxCell id="3HVXW9suQ6SYdaEqqMiQ-1" value="pQTL" style="shape=parallelogram;html=1;strokeWidth=2;perimeter=parallelogramPerimeter;whiteSpace=wrap;rounded=1;arcSize=12;size=0.23;" vertex="1" parent="WIyWlLk6GJQsqaUBKTNV-1">
          <mxGeometry x="230" y="140" width="100" height="60" as="geometry" />
        </mxCell>
        <mxCell id="3HVXW9suQ6SYdaEqqMiQ-7" style="edgeStyle=orthogonalEdgeStyle;rounded=0;orthogonalLoop=1;jettySize=auto;html=1;entryX=0.5;entryY=0;entryDx=0;entryDy=0;" edge="1" parent="WIyWlLk6GJQsqaUBKTNV-1" source="3HVXW9suQ6SYdaEqqMiQ-2" target="3HVXW9suQ6SYdaEqqMiQ-6">
          <mxGeometry relative="1" as="geometry" />
        </mxCell>
        <mxCell id="3HVXW9suQ6SYdaEqqMiQ-14" style="edgeStyle=orthogonalEdgeStyle;rounded=0;orthogonalLoop=1;jettySize=auto;html=1;entryX=0.5;entryY=0;entryDx=0;entryDy=0;exitX=0.5;exitY=1;exitDx=0;exitDy=0;" edge="1" parent="WIyWlLk6GJQsqaUBKTNV-1" source="3HVXW9suQ6SYdaEqqMiQ-2" target="3HVXW9suQ6SYdaEqqMiQ-13">
          <mxGeometry relative="1" as="geometry">
            <mxPoint x="350" y="250" as="targetPoint" />
            <Array as="points">
              <mxPoint x="480" y="240" />
              <mxPoint x="270" y="240" />
            </Array>
          </mxGeometry>
        </mxCell>
        <mxCell id="3HVXW9suQ6SYdaEqqMiQ-2" value="GWAS" style="shape=parallelogram;html=1;strokeWidth=2;perimeter=parallelogramPerimeter;whiteSpace=wrap;rounded=1;arcSize=12;size=0.23;" vertex="1" parent="WIyWlLk6GJQsqaUBKTNV-1">
          <mxGeometry x="430" y="140" width="100" height="60" as="geometry" />
        </mxCell>
        <mxCell id="3HVXW9suQ6SYdaEqqMiQ-22" style="edgeStyle=orthogonalEdgeStyle;rounded=0;orthogonalLoop=1;jettySize=auto;html=1;entryX=0.5;entryY=0;entryDx=0;entryDy=0;entryPerimeter=0;" edge="1" parent="WIyWlLk6GJQsqaUBKTNV-1" source="3HVXW9suQ6SYdaEqqMiQ-3" target="3HVXW9suQ6SYdaEqqMiQ-20">
          <mxGeometry relative="1" as="geometry">
            <mxPoint x="380" y="600" as="targetPoint" />
            <Array as="points">
              <mxPoint x="480" y="530" />
              <mxPoint x="380" y="530" />
            </Array>
          </mxGeometry>
        </mxCell>
        <mxCell id="3HVXW9suQ6SYdaEqqMiQ-3" value="" style="shape=parallelogram;html=1;strokeWidth=2;perimeter=parallelogramPerimeter;whiteSpace=wrap;rounded=1;arcSize=12;size=0.23;" vertex="1" parent="WIyWlLk6GJQsqaUBKTNV-1">
          <mxGeometry x="430" y="440" width="100" height="60" as="geometry" />
        </mxCell>
        <mxCell id="3HVXW9suQ6SYdaEqqMiQ-12" style="edgeStyle=orthogonalEdgeStyle;rounded=0;orthogonalLoop=1;jettySize=auto;html=1;entryX=0.5;entryY=0;entryDx=0;entryDy=0;" edge="1" parent="WIyWlLk6GJQsqaUBKTNV-1" source="3HVXW9suQ6SYdaEqqMiQ-6" target="3HVXW9suQ6SYdaEqqMiQ-3">
          <mxGeometry relative="1" as="geometry" />
        </mxCell>
        <mxCell id="3HVXW9suQ6SYdaEqqMiQ-6" value="TWAS/FUSION&lt;br&gt;+&lt;br&gt;coloc" style="rounded=1;whiteSpace=wrap;html=1;absoluteArcSize=1;arcSize=14;strokeWidth=2;" vertex="1" parent="WIyWlLk6GJQsqaUBKTNV-1">
          <mxGeometry x="430" y="280" width="100" height="100" as="geometry" />
        </mxCell>
        <mxCell id="3HVXW9suQ6SYdaEqqMiQ-11" style="edgeStyle=orthogonalEdgeStyle;rounded=0;orthogonalLoop=1;jettySize=auto;html=1;entryX=1;entryY=0.5;entryDx=0;entryDy=0;" edge="1" parent="WIyWlLk6GJQsqaUBKTNV-1" source="3HVXW9suQ6SYdaEqqMiQ-10" target="3HVXW9suQ6SYdaEqqMiQ-6">
          <mxGeometry relative="1" as="geometry" />
        </mxCell>
        <mxCell id="3HVXW9suQ6SYdaEqqMiQ-10" value="weights:Brain(DLPFC) ,provided by FUSION" style="strokeWidth=2;html=1;shape=mxgraph.flowchart.annotation_1;align=left;pointerEvents=1;" vertex="1" parent="WIyWlLk6GJQsqaUBKTNV-1">
          <mxGeometry x="560" y="280" width="50" height="100" as="geometry" />
        </mxCell>
        <mxCell id="3HVXW9suQ6SYdaEqqMiQ-17" style="edgeStyle=orthogonalEdgeStyle;rounded=0;orthogonalLoop=1;jettySize=auto;html=1;" edge="1" parent="WIyWlLk6GJQsqaUBKTNV-1" source="3HVXW9suQ6SYdaEqqMiQ-13" target="3HVXW9suQ6SYdaEqqMiQ-16">
          <mxGeometry relative="1" as="geometry" />
        </mxCell>
        <mxCell id="3HVXW9suQ6SYdaEqqMiQ-13" value="TwoSampleMR" style="rounded=1;whiteSpace=wrap;html=1;absoluteArcSize=1;arcSize=14;strokeWidth=2;" vertex="1" parent="WIyWlLk6GJQsqaUBKTNV-1">
          <mxGeometry x="220" y="280" width="100" height="100" as="geometry" />
        </mxCell>
        <mxCell id="3HVXW9suQ6SYdaEqqMiQ-21" style="edgeStyle=orthogonalEdgeStyle;rounded=0;orthogonalLoop=1;jettySize=auto;html=1;entryX=0.5;entryY=0;entryDx=0;entryDy=0;entryPerimeter=0;" edge="1" parent="WIyWlLk6GJQsqaUBKTNV-1" source="3HVXW9suQ6SYdaEqqMiQ-16" target="3HVXW9suQ6SYdaEqqMiQ-20">
          <mxGeometry relative="1" as="geometry">
            <Array as="points">
              <mxPoint x="270" y="540" />
              <mxPoint x="380" y="540" />
            </Array>
          </mxGeometry>
        </mxCell>
        <mxCell id="3HVXW9suQ6SYdaEqqMiQ-16" value="2 candidate gene&lt;br&gt;DOC2A&lt;br&gt;TMEM175" style="shape=parallelogram;html=1;strokeWidth=2;perimeter=parallelogramPerimeter;whiteSpace=wrap;rounded=1;arcSize=12;size=0.23;" vertex="1" parent="WIyWlLk6GJQsqaUBKTNV-1">
          <mxGeometry x="220" y="440" width="100" height="60" as="geometry" />
        </mxCell>
        <mxCell id="3HVXW9suQ6SYdaEqqMiQ-19" style="edgeStyle=orthogonalEdgeStyle;rounded=0;orthogonalLoop=1;jettySize=auto;html=1;exitX=0.5;exitY=0;exitDx=0;exitDy=0;exitPerimeter=0;entryX=0.02;entryY=0.38;entryDx=0;entryDy=0;entryPerimeter=0;" edge="1" parent="WIyWlLk6GJQsqaUBKTNV-1" source="3HVXW9suQ6SYdaEqqMiQ-18" target="3HVXW9suQ6SYdaEqqMiQ-13">
          <mxGeometry relative="1" as="geometry" />
        </mxCell>
        <mxCell id="3HVXW9suQ6SYdaEqqMiQ-18" value="input: snp with p &amp;lt;= 1e-3" style="strokeWidth=2;html=1;shape=mxgraph.flowchart.annotation_1;align=left;pointerEvents=1;" vertex="1" parent="WIyWlLk6GJQsqaUBKTNV-1">
          <mxGeometry x="40" y="340" width="50" height="100" as="geometry" />
        </mxCell>
        <mxCell id="3HVXW9suQ6SYdaEqqMiQ-20" value="" style="strokeWidth=2;html=1;shape=mxgraph.flowchart.terminator;whiteSpace=wrap;" vertex="1" parent="WIyWlLk6GJQsqaUBKTNV-1">
          <mxGeometry x="330" y="600" width="100" height="60" as="geometry" />
        </mxCell>
      </root>
    </mxGraphModel>
  </diagram>
</mxfile>
